<svg width="558" height="502" viewBox="0 0 558 502" fill="none" xmlns="http://www.w3.org/2000/svg">
<path d="M522.742 251.005C522.888 265.487 519.844 279.851 513.785 293.267C507.726 306.684 498.772 318.889 487.441 329.175C476.11 339.462 462.627 347.627 447.768 353.199C432.91 358.772 416.972 361.641 400.875 361.641C384.777 361.641 368.839 358.772 353.981 353.199C339.123 347.627 325.639 339.462 314.308 329.175C302.977 318.889 294.024 306.684 287.965 293.267C281.906 279.851 278.861 265.487 279.007 251.005C278.861 236.524 281.906 222.16 287.965 208.743C294.024 195.326 302.977 183.122 314.308 172.835C325.639 162.549 339.123 154.383 353.981 148.811C368.839 143.239 384.777 140.37 400.875 140.37C416.972 140.37 432.91 143.239 447.768 148.811C462.627 154.383 476.11 162.549 487.441 172.835C498.772 183.122 507.726 195.326 513.785 208.743C519.844 222.16 522.888 236.524 522.742 251.005V251.005Z" stroke="black" stroke-width="1.00001"/>
<path d="M461.807 156.033C461.953 170.515 458.909 184.878 452.85 198.295C446.791 211.712 437.837 223.917 426.506 234.203C415.175 244.49 401.692 252.655 386.833 258.227C371.975 263.8 356.037 266.669 339.94 266.669C323.842 266.669 307.904 263.8 293.046 258.227C278.188 252.655 264.704 244.49 253.373 234.203C242.042 223.917 233.089 211.712 227.03 198.295C220.971 184.878 217.926 170.515 218.072 156.033C217.926 141.552 220.971 127.188 227.03 113.771C233.089 100.354 242.042 88.1499 253.373 77.8633C264.704 67.5767 278.188 59.4115 293.046 53.8391C307.904 48.2668 323.842 45.3978 339.94 45.3978C356.037 45.3978 371.975 48.2668 386.833 53.8391C401.692 59.4115 415.175 67.5767 426.506 77.8633C437.837 88.1499 446.791 100.354 452.85 113.771C458.909 127.188 461.953 141.552 461.807 156.033V156.033Z" stroke="black" stroke-width="1.00001"/>
<path d="M339.939 156.033C340.085 170.515 337.04 184.878 330.981 198.295C324.922 211.712 315.969 223.917 304.638 234.203C293.307 244.49 279.823 252.655 264.965 258.227C250.107 263.8 234.169 266.669 218.071 266.669C201.974 266.669 186.036 263.8 171.178 258.227C156.319 252.655 142.836 244.49 131.505 234.203C120.174 223.917 111.22 211.712 105.161 198.295C99.1023 184.878 96.0578 170.515 96.2037 156.033C96.0578 141.552 99.1023 127.188 105.161 113.771C111.22 100.354 120.174 88.1499 131.505 77.8633C142.836 67.5767 156.319 59.4115 171.178 53.8391C186.036 48.2668 201.974 45.3978 218.071 45.3978C234.169 45.3978 250.107 48.2668 264.965 53.8391C279.823 59.4115 293.307 67.5767 304.638 77.8633C315.969 88.1499 324.922 100.354 330.981 113.771C337.04 127.188 340.085 141.552 339.939 156.033V156.033Z" stroke="black" stroke-width="1.00001"/>
<path d="M279.004 251.005C279.15 265.487 276.105 279.851 270.046 293.267C263.987 306.684 255.034 318.889 243.703 329.175C232.372 339.462 218.888 347.627 204.03 353.199C189.172 358.772 173.234 361.641 157.136 361.641C141.039 361.641 125.101 358.772 110.243 353.199C95.3845 347.627 81.9007 339.462 70.5697 329.175C59.2388 318.889 50.2853 306.684 44.2263 293.267C38.1673 279.851 35.1229 265.487 35.2688 251.005C35.1229 236.524 38.1673 222.16 44.2263 208.743C50.2853 195.326 59.2388 183.122 70.5697 172.835C81.9007 162.549 95.3845 154.383 110.243 148.811C125.101 143.239 141.039 140.37 157.136 140.37C173.234 140.37 189.172 143.239 204.03 148.811C218.888 154.383 232.372 162.549 243.703 172.835C255.034 183.122 263.987 195.326 270.046 208.743C276.105 222.16 279.15 236.524 279.004 251.005V251.005Z" stroke="black" stroke-width="1.00001"/>
<path d="M339.939 345.98C340.085 360.461 337.04 374.825 330.981 388.242C324.922 401.659 315.969 413.863 304.638 424.15C293.307 434.436 279.823 442.602 264.965 448.174C250.107 453.746 234.169 456.615 218.071 456.615C201.974 456.615 186.036 453.746 171.178 448.174C156.319 442.602 142.836 434.436 131.505 424.15C120.174 413.863 111.22 401.659 105.161 388.242C99.1023 374.825 96.0578 360.461 96.2037 345.98C96.0578 331.499 99.1023 317.135 105.161 303.718C111.22 290.301 120.174 278.097 131.505 267.81C142.836 257.523 156.319 249.358 171.178 243.786C186.036 238.213 201.974 235.344 218.071 235.344C234.169 235.344 250.107 238.213 264.965 243.786C279.823 249.358 293.307 257.523 304.638 267.81C315.969 278.097 324.922 290.301 330.981 303.718C337.04 317.135 340.085 331.499 339.939 345.98V345.98Z" stroke="black" stroke-width="1.00001"/>
<path d="M461.807 345.98C461.953 360.461 458.909 374.825 452.85 388.242C446.791 401.659 437.837 413.863 426.506 424.15C415.175 434.436 401.692 442.602 386.833 448.174C371.975 453.746 356.037 456.615 339.94 456.615C323.842 456.615 307.904 453.746 293.046 448.174C278.188 442.602 264.704 434.436 253.373 424.15C242.042 413.863 233.089 401.659 227.03 388.242C220.971 374.825 217.926 360.461 218.072 345.98C217.926 331.499 220.971 317.135 227.03 303.718C233.089 290.301 242.042 278.097 253.373 267.81C264.704 257.523 278.188 249.358 293.046 243.786C307.904 238.213 323.842 235.344 339.94 235.344C356.037 235.344 371.975 238.213 386.833 243.786C401.692 249.358 415.175 257.523 426.506 267.81C437.837 278.097 446.791 290.301 452.85 303.718C458.909 317.135 461.953 331.499 461.807 345.98V345.98Z" stroke="black" stroke-width="1.00001"/>
<path d="M400.863 250.996C401.009 265.477 397.964 279.841 391.906 293.257C385.847 306.674 376.893 318.877 365.563 329.164C354.232 339.45 340.749 347.615 325.891 353.187C311.033 358.759 295.096 361.628 278.999 361.628C262.902 361.628 246.964 358.759 232.107 353.187C217.249 347.615 203.766 339.45 192.435 329.164C181.104 318.877 172.151 306.674 166.092 293.257C160.034 279.841 156.989 265.477 157.135 250.996C156.989 236.515 160.034 222.152 166.092 208.735C172.151 195.319 181.104 183.115 192.435 172.829C203.766 162.542 217.249 154.377 232.107 148.805C246.964 143.233 262.902 140.364 278.999 140.364C295.096 140.364 311.033 143.233 325.891 148.805C340.749 154.377 354.232 162.542 365.563 172.829C376.893 183.115 385.847 195.319 391.906 208.735C397.964 222.152 401.009 236.515 400.863 250.996V250.996Z" stroke="black" stroke-width="0.999982"/>
</svg>
